<?xml version="1.0" encoding="UTF-8"?>
<svg id="Layer_2" data-name="Layer 2" xmlns="http://www.w3.org/2000/svg" viewBox="0 0 100.99 100">
  <defs>
    <style>
      .cls-1 {
        fill: #0b93e2;
      }

      .cls-2 {
        fill: #c2e3f7;
      }

      .cls-3 {
        fill: #fff;
      }
    </style>
  </defs>
  <g id="Layer_1-2" data-name="Layer 1">
    <g id="_9" data-name="9">
      <g>
        <rect class="cls-3" width="100.99" height="100"/>
        <g id="_606_Bucket_Cleaning_Floor_Home" data-name="606, Bucket, Cleaning, Floor, Home">
          <g>
            <g>
              <path class="cls-2" d="M47.97,41.3c1.41,0,2.52,1.1,2.52,2.5s-1.11,2.5-2.52,2.5-2.52-1.2-2.52-2.5c0-1.4,1.11-2.5,2.52-2.5Z"/>
              <path class="cls-3" d="M71.2,37c.51.5.71,1.1.71,1.8,0,1.4-1.11,2.5-2.52,2.5H30.3c-.71,0-1.31-.3-1.82-.7-.51-.5-.71-1.1-.71-1.8,0-1.4,1.11-2.5,2.52-2.5h39.19c.61,0,1.31.2,1.72.7Z"/>
              <path class="cls-3" d="M69.08,41.3l-3.23,20.7-17.88-15.7c1.41,0,2.52-1.1,2.52-2.5s-1.11-2.5-2.52-2.5h21.11Z"/>
              <path class="cls-3" d="M65.85,62l-2.12,13.5c-.2,1.1-1.21,2-2.32,2h-23.03c-1.21,0-2.22-.8-2.32-2l-5.35-34.3h17.37c-1.41,0-2.52,1.1-2.52,2.5s1.11,2.5,2.52,2.5l17.77,15.8Z"/>
              <path class="cls-3" d="M25.85,58.8c1.72,0,3.13,1.4,3.13,3.1s-1.31,3.1-3.13,3.1-3.13-1.4-3.13-3.1,1.42-3.1,3.13-3.1Z"/>
              <path class="cls-3" d="M74.53,26.3c1.41,0,2.52,1.1,2.52,2.5s-1.11,2.5-2.52,2.5-2.52-1.1-2.52-2.5,1.11-2.5,2.52-2.5Z"/>
              <path class="cls-3" d="M27.17,22.5c1.72,0,3.13,1.4,3.13,3.1s-1.41,3.1-3.13,3.1-3.13-1.4-3.13-3.1,1.31-3.1,3.13-3.1Z"/>
              <path class="cls-3" d="M68.17,33.1c0,1.2-.51,2.3-1.31,3.1H31.81c-.1-.4-.2-.8-.2-1.3,0-2.1,1.72-3.8,3.84-3.8.51,0,.91.1,1.31.2-.1-.3-.1-.6-.1-.9,0-2.4,2.02-4.4,4.44-4.4.71,0,1.31.2,1.92.4v-.4c0-2.8,2.22-5,5.05-5,2.22,0,4.04,1.4,4.75,3.3.81-.5,1.82-.8,2.83-.8,2.83,0,5.05,2.2,5.05,5v.4c.2.1.4.2.61.4.71-.5,1.62-.8,2.52-.8,2.32.3,4.34,2.2,4.34,4.6Z"/>
            </g>
            <g>
              <path class="cls-1" d="M61.4,78.8c-.71,0-1.31-.6-1.31-1.3s.61-1.3,1.31-1.3c.61,0,1.01-.4,1.11-.9l2.12-13.5,3.23-20.7c.1-.7.71-1.1,1.41-1,.71.1,1.11.7,1.01,1.4l-5.35,34.3c-.2,1.7-1.72,3-3.53,3Z"/>
              <path class="cls-1" d="M38.38,78.8c-1.82,0-3.33-1.3-3.64-3.1l-5.35-34.3c-.1-.7.4-1.3,1.01-1.4.71-.1,1.31.4,1.41,1l5.35,34.3c.1.5.51.9,1.11.9.71,0,1.31.6,1.31,1.3s-.5,1.3-1.21,1.3Z"/>
              <path class="cls-1" d="M31.81,37.5c-.51,0-1.01-.3-1.21-.8-.2-.6-.3-1.1-.3-1.7,0-2.8,2.22-5,5.05-5h0c.3-2.8,2.73-5,5.66-5h.71c.61-2.9,3.13-5,6.16-5,2.22,0,4.24,1.1,5.35,2.9.71-.3,1.52-.4,2.22-.4,3.13,0,5.76,2.3,6.26,5.3.61-.2,1.31-.3,1.92-.3,3.13,0,5.65,2.5,5.65,5.6,0,1.5-.61,3-1.72,4-.51.5-1.31.5-1.82,0-.51-.5-.51-1.3,0-1.8.61-.6.91-1.4.91-2.2,0-1.7-1.41-3.1-3.13-3.1-.61,0-1.31.2-1.82.6-.4.3-1.01.3-1.41,0-.1-.1-.3-.2-.51-.3-.51-.2-.81-.7-.71-1.2v-.3c0-2.1-1.72-3.8-3.84-3.8-.71,0-1.52.2-2.12.6-.3.2-.71.3-1.11.1-.4-.1-.71-.4-.81-.8-.51-1.5-1.92-2.5-3.54-2.5-2.12,0-3.84,1.7-3.84,3.8v.3c0,.4-.2.9-.51,1.1-.3.2-.51.4-.91.2-.4-.2-.91-.3-1.41-.3-1.72,0-3.13,1.4-3.13,3.1,0,.2,0,.4.1.6.1.4-.1.9-.4,1.2-.3.3-.81.4-1.31.2-.3-.1-.61-.2-.91-.2-1.41,0-2.52,1.1-2.52,2.5,0,.3,0,.6.1.8.2.7-.1,1.4-.81,1.6-.1.2-.2.2-.3.2Z"/>
              <path class="cls-1" d="M69.48,42.5H30.3c-1.01,0-1.92-.4-2.73-1.1-.71-.7-1.11-1.7-1.11-2.7,0-2.1,1.72-3.8,3.84-3.8h39.19c1.01,0,1.92.4,2.73,1.1.71.7,1.11,1.7,1.11,2.7-.1,2.1-1.82,3.8-3.84,3.8ZM30.3,37.5c-.71,0-1.31.6-1.31,1.3,0,.3.1.6.4.9.2.2.51.4.91.4h39.19c.71,0,1.31-.6,1.31-1.3,0-.3-.1-.6-.4-.9-.2-.2-.61-.4-.91-.4H30.3Z"/>
              <path class="cls-1" d="M47.97,47.5c-2.12,0-3.84-1.7-3.84-3.8s1.72-3.8,3.84-3.8,3.84,1.7,3.84,3.8c0,2.1-1.72,3.8-3.84,3.8ZM47.97,42.5c-.71,0-1.31.6-1.31,1.3s.61,1.3,1.31,1.3,1.31-.6,1.31-1.3c0-.7-.61-1.3-1.31-1.3Z"/>
              <path class="cls-1" d="M70.09,65.1c-1.72,0-3.33-.6-4.65-1.7l-18.28-16.2c-.51-.5-.61-1.2-.1-1.8.51-.5,1.21-.6,1.82-.1l18.28,16.1c.91.8,2.12,1.2,3.33,1.1,1.21-.1,2.32-.6,3.13-1.6.71-.8,1.01-1.8,1.01-2.8,0-.8-.2-1.5-.61-2.2l-3.13-5.3c-.3-.6-.1-1.4.51-1.7.61-.3,1.41-.1,1.72.5l3.13,5.3c.61,1,.91,2.2.91,3.4,0,1.6-.61,3.2-1.62,4.4-1.21,1.4-2.93,2.3-4.85,2.5-.3,0-.4.1-.61.1Z"/>
              <path class="cls-1" d="M25.85,66.3c-2.42,0-4.44-2-4.44-4.4s2.02-4.4,4.44-4.4,4.44,2,4.44,4.4-2.02,4.4-4.44,4.4ZM25.85,60c-1.01,0-1.92.8-1.92,1.9s.81,1.9,1.92,1.9,1.92-.8,1.92-1.9-.81-1.9-1.92-1.9Z"/>
              <path class="cls-1" d="M74.53,32.5c-2.12,0-3.84-1.7-3.84-3.8s1.72-3.8,3.84-3.8,3.84,1.7,3.84,3.8-1.82,3.8-3.84,3.8ZM74.53,27.5c-.71,0-1.31.6-1.31,1.3s.61,1.3,1.31,1.3,1.31-.6,1.31-1.3c-.1-.7-.71-1.3-1.31-1.3Z"/>
              <path class="cls-1" d="M27.17,30c-2.42,0-4.44-2-4.44-4.4s2.02-4.4,4.44-4.4,4.44,2,4.44,4.4-2.02,4.4-4.44,4.4ZM27.17,23.8c-1.01,0-1.92.8-1.92,1.9s.81,1.9,1.92,1.9,1.92-.8,1.92-1.9-.91-1.9-1.92-1.9Z"/>
              <path class="cls-1" d="M72.01,78.8H29.09c-.71,0-1.31-.6-1.31-1.3s.61-1.3,1.31-1.3h42.92c.71,0,1.31.6,1.31,1.3-.1.7-.71,1.3-1.31,1.3Z"/>
            </g>
          </g>
        </g>
      </g>
    </g>
  </g>
</svg>