<?xml version="1.0" encoding="UTF-8"?>
<svg id="Layer_2" data-name="Layer 2" xmlns="http://www.w3.org/2000/svg" viewBox="0 0 100.99 100">
  <defs>
    <style>
      .cls-1 {
        fill: #0b93e2;
      }

      .cls-2 {
        fill: #c2e3f7;
      }

      .cls-3 {
        fill: #fff;
      }
    </style>
  </defs>
  <g id="Layer_1-2" data-name="Layer 1">
    <g id="_2" data-name="2">
      <g>
        <rect class="cls-3" width="100.99" height="100"/>
        <g id="_613_Broom_Clean_Cleaning_Sweep" data-name="613, Broom, Clean, Cleaning, Sweep">
          <g>
            <g>
              <path class="cls-2" d="M68.07,27.5c1.72,0,3.13,1.4,3.13,3.1s-1.41,3.1-3.13,3.1-3.13-1.4-3.13-3.1,1.41-3.1,3.13-3.1Z"/>
              <path class="cls-2" d="M49.79,37.5c1.41,0,2.52,1.1,2.52,2.5s-1.11,2.5-2.52,2.5-2.52-1.1-2.52-2.5,1.11-2.5,2.52-2.5Z"/>
              <path class="cls-2" d="M42.21,30.6v28.1h-3.74v-28.1c0-1,.81-1.9,1.92-1.9.51,0,1.01.2,1.31.6.3.3.51.8.51,1.3Z"/>
              <path class="cls-2" d="M44.74,61.8v2h-8.89v-2c0-1.7,1.41-3,3.03-3h2.73c1.82,0,3.13,1.3,3.13,3Z"/>
              <path class="cls-2" d="M73.02,49.5c.51.5.71,1.1.71,1.8,0,1.4-1.11,2.5-2.52,2.5h-22.62c-.71,0-1.31-.3-1.82-.7-.51-.5-.71-1.1-.71-1.8,0-1.4,1.11-2.5,2.52-2.5h22.72c.71,0,1.31.2,1.72.7Z"/>
              <polygon class="cls-2" points="54.84 68.8 56.15 68.8 56.15 63.8 50.4 63.8 48.58 53.8 71.3 53.8 68.98 66.7 67.46 75 54.84 75 54.84 68.8"/>
              <polygon class="cls-2" points="54.84 68.8 54.84 75 52.31 75 25.85 75 25.85 68.8 51.41 68.8 54.84 68.8"/>
              <polygon class="cls-2" points="56.15 63.8 56.15 68.8 54.84 68.8 51.41 68.8 25.85 68.8 24.54 68.8 24.54 63.8 35.95 63.8 44.74 63.8 50.4 63.8 56.15 63.8"/>
            </g>
            <g>
              <path class="cls-1" d="M44.74,65c-.71,0-1.31-.6-1.31-1.3v-2c0-1-.81-1.8-1.82-1.8-.71,0-1.31-.6-1.31-1.3s.61-1.3,1.31-1.3c2.42,0,4.34,1.9,4.34,4.3v2c.1.8-.5,1.4-1.21,1.4Z"/>
              <path class="cls-1" d="M35.95,65c-.71,0-1.31-.6-1.31-1.3v-2c0-2.4,1.92-4.3,4.34-4.3.71,0,1.31.6,1.31,1.3s-.61,1.3-1.31,1.3c-1.01,0-1.82.8-1.82,1.8v2c0,.6-.51,1.2-1.21,1.2Z"/>
              <path class="cls-1" d="M42.21,60h-3.84c-.71,0-1.31-.6-1.31-1.3v-28.1c0-1.7,1.41-3.1,3.13-3.1.81,0,1.62.3,2.22.9s.91,1.4.91,2.2v28.1c.2.7-.4,1.3-1.11,1.3ZM39.69,57.5h1.31v-26.9c0-.2-.1-.4-.2-.4-.1-.1-.3-.2-.4-.2-.3,0-.61.3-.61.6v26.9h-.1Z"/>
              <path class="cls-1" d="M67.46,76.3h-12.62c-.71,0-1.31-.6-1.31-1.3s.61-1.3,1.31-1.3h11.61l3.64-20.2c.1-.7.81-1.1,1.41-1,.71.1,1.11.8,1.01,1.4l-3.84,21.3c-.1.6-.61,1.1-1.21,1.1Z"/>
              <path class="cls-1" d="M50.4,65c-.61,0-1.11-.4-1.21-1l-1.92-10c-.1-.7.3-1.3,1.01-1.5.71-.1,1.31.3,1.51,1l1.92,10c.1.7-.3,1.3-1.01,1.5h-.3Z"/>
              <path class="cls-1" d="M56.15,70h-1.31c-.71,0-1.31-.6-1.31-1.3s.61-1.3,1.31-1.3v-2.4h-28.99v2.5c.71,0,1.31.6,1.31,1.3s-.61,1.3-1.31,1.3h-1.31c-.71,0-1.31-.6-1.31-1.3v-5c0-.7.61-1.3,1.31-1.3h31.61c.71,0,1.31.6,1.31,1.3v5c-.1.6-.61,1.2-1.31,1.2Z"/>
              <path class="cls-1" d="M54.84,76.3h-28.99c-.71,0-1.31-.6-1.31-1.3v-6.3c0-.7.61-1.3,1.31-1.3h29.09c.71,0,1.31.6,1.31,1.3v6.3c-.1.7-.71,1.3-1.41,1.3ZM27.07,73.8h26.56v-3.8h-26.56v3.8Z"/>
              <path class="cls-1" d="M71.3,55h-22.72c-1.01,0-1.92-.4-2.73-1.1-.71-.7-1.11-1.7-1.11-2.7,0-2.1,1.72-3.8,3.84-3.8h22.72c1.01,0,1.92.4,2.73,1.1.71.7,1.11,1.7,1.11,2.7-.1,2.1-1.82,3.8-3.84,3.8ZM48.58,50c-.71,0-1.31.6-1.31,1.3,0,.3.1.6.4.9.2.2.61.4.91.4h22.72c.71,0,1.31-.6,1.31-1.3,0-.3-.1-.6-.4-.9-.3-.3-.61-.4-.91-.4h-22.72Z"/>
              <path class="cls-1" d="M72.61,69.7c-1.41,0-2.73-.5-3.74-1.4l-.71-.7-10.3-9.2c-.51-.5-.61-1.3-.1-1.8s1.31-.6,1.82-.1l11.01,9.9c.71.6,1.62.9,2.63.7,1.51-.2,2.63-1.5,2.63-3,0-.4-.1-.8-.3-1.2l-1.62-3.7c-.3-.6,0-1.4.71-1.6.6-.3,1.41,0,1.62.7l1.62,3.7c.3.7.51,1.4.51,2.2,0,2.7-2.02,5.1-4.75,5.5h-1.01Z"/>
              <path class="cls-1" d="M49.79,43.8c-2.12,0-3.84-1.7-3.84-3.8s1.72-3.8,3.84-3.8,3.84,1.7,3.84,3.8-1.72,3.8-3.84,3.8ZM49.79,38.8c-.71,0-1.31.6-1.31,1.3s.61,1.3,1.31,1.3,1.31-.6,1.31-1.3c0-.7-.61-1.3-1.31-1.3Z"/>
              <path class="cls-1" d="M28.99,55c-1.72,0-3.13-1.4-3.13-3.1s1.41-3.1,3.13-3.1,3.13,1.4,3.13,3.1-1.41,3.1-3.13,3.1ZM28.99,51.3c-.3,0-.61.3-.61.6s.3.6.61.6.61-.3.61-.6-.3-.6-.61-.6Z"/>
              <path class="cls-1" d="M68.07,35c-2.42,0-4.44-2-4.44-4.4s2.02-4.4,4.44-4.4,4.44,2,4.44,4.4-1.92,4.4-4.44,4.4ZM68.07,28.8c-1.01,0-1.92.8-1.92,1.9s.81,1.9,1.92,1.9,1.92-.8,1.92-1.9-.81-1.9-1.92-1.9Z"/>
            </g>
          </g>
        </g>
      </g>
    </g>
  </g>
</svg>