<?xml version="1.0" encoding="UTF-8"?>
<svg id="Layer_2" data-name="Layer 2" xmlns="http://www.w3.org/2000/svg" viewBox="0 0 100.99 100">
  <defs>
    <style>
      .cls-1 {
        fill: #0b93e2;
      }

      .cls-2 {
        fill: #c2e3f7;
      }

      .cls-3 {
        fill: #fff;
      }
    </style>
  </defs>
  <g id="Layer_1-2" data-name="Layer 1">
    <g id="_2" data-name="2">
      <g>
        <rect class="cls-3" width="100.99" height="100"/>
        <g id="_622_Broom_Clean_Cleaning_Sweep" data-name="622, Broom, Clean, Cleaning, Sweep">
          <g>
            <g>
              <path class="cls-2" d="M35.35,26.3c1.41,0,2.53,1.1,2.53,2.5s-1.11,2.5-2.53,2.5-2.53-1.1-2.53-2.5,1.11-2.5,2.53-2.5Z"/>
              <path class="cls-2" d="M26.56,37.5c2.12,0,3.84,1.7,3.84,3.8s-1.72,3.8-3.84,3.8-3.84-1.7-3.84-3.8,1.72-3.8,3.84-3.8Z"/>
              <path class="cls-2" d="M66.96,28.8c1.41,0,2.52,1.1,2.52,2.5s-1.11,2.5-2.52,2.5-2.53-1.1-2.53-2.5,1.11-2.5,2.53-2.5Z"/>
              <path class="cls-2" d="M65.04,55c-2.42,0-4.44-2-4.44-4.4,0-1.6.81-2.9,2.12-3.7.71-.4,1.51-.7,2.32-.7,2.42,0,4.44,2,4.44,4.4,0,2-1.31,3.6-3.13,4.2-.4.1-.91.2-1.31.2Z"/>
              <rect class="cls-2" x="47.97" y="23.8" width="5.05" height="13.8"/>
              <path class="cls-2" d="M47.87,42.5c-1.01,0-2.02.1-3.03.3v-5.3h11.31v5.5c-1.21-.3-2.42-.5-3.64-.5h-4.64Z"/>
              <path class="cls-2" d="M56.15,43c2.53.7,4.75,2.1,6.46,3.9-1.21.8-2.12,2.1-2.12,3.7,0,2.4,2.02,4.4,4.44,4.4.5,0,.91-.1,1.31-.2l4.44,21.5h-5.05l-5.05-8.8-3.84,8.8h-26.46l3.74-21.6c.71-5.9,5.05-10.6,10.71-11.8,1.01-.2,2.02-.3,3.03-.3h4.75c1.21-.1,2.53.1,3.64.4Z"/>
            </g>
            <g>
              <path class="cls-1" d="M53.02,38.8c-.71,0-1.31-.6-1.31-1.3v-12.5h-2.53v12.5c0,.7-.61,1.3-1.31,1.3s-1.31-.6-1.31-1.3v-13.7c0-.7.61-1.3,1.31-1.3h5.05c.71,0,1.31.6,1.31,1.3v13.8c.1.6-.5,1.2-1.21,1.2Z"/>
              <path class="cls-1" d="M56.15,44.2c-.71,0-1.31-.6-1.31-1.3v-4.2h-8.89v4.1c0,.7-.61,1.3-1.31,1.3s-1.31-.6-1.31-1.3v-5.3c0-.7.61-1.3,1.31-1.3h11.41c.71,0,1.31.6,1.31,1.3v5.5c.1.7-.5,1.2-1.21,1.2Z"/>
              <path class="cls-1" d="M50.5,77.5c-.71,0-1.31-.6-1.31-1.3v-12.4c0-.7.61-1.3,1.31-1.3s1.31.6,1.31,1.3v12.5c0,.6-.61,1.2-1.31,1.2Z"/>
              <path class="cls-1" d="M45.45,77.5c-.71,0-1.31-.6-1.31-1.3v-7.5c0-.7.61-1.3,1.31-1.3s1.31.6,1.31,1.3v7.5c0,.7-.61,1.3-1.31,1.3Z"/>
              <path class="cls-1" d="M39.19,77.5c-.71,0-1.31-.6-1.31-1.3v-11.2c0-.7.61-1.3,1.31-1.3s1.21.6,1.21,1.3v11.3c0,.6-.61,1.2-1.21,1.2Z"/>
              <path class="cls-1" d="M26.56,46.3c-2.83,0-5.05-2.2-5.05-5s2.22-5,5.05-5,5.05,2.2,5.05,5c0,2.8-2.32,5-5.05,5ZM26.56,38.8c-1.41,0-2.53,1.1-2.53,2.5s1.11,2.5,2.53,2.5,2.53-1.1,2.53-2.5c0-1.4-1.21-2.5-2.53-2.5Z"/>
              <path class="cls-1" d="M66.96,35c-2.12,0-3.84-1.7-3.84-3.8s1.72-3.8,3.84-3.8,3.84,1.7,3.84,3.8-1.82,3.8-3.84,3.8ZM66.96,30c-.71,0-1.31.6-1.31,1.3s.61,1.3,1.31,1.3,1.31-.6,1.31-1.3c-.1-.7-.71-1.3-1.31-1.3Z"/>
              <path class="cls-1" d="M35.35,32.5c-2.12,0-3.84-1.7-3.84-3.8s1.72-3.7,3.84-3.7,3.84,1.7,3.84,3.8-1.72,3.7-3.84,3.7ZM35.35,27.5c-.71,0-1.31.6-1.31,1.3s.61,1.3,1.31,1.3,1.31-.6,1.31-1.3-.61-1.3-1.31-1.3Z"/>
              <path class="cls-1" d="M70.7,77.5h-5.05c-.4,0-.91-.2-1.11-.6l-3.84-6.6-2.83,6.4c-.2.5-.61.8-1.11.8h-26.46c-.4,0-.71-.2-1.01-.4-.2-.3-.3-.7-.3-1l3.74-21.5c.71-6.3,5.45-11.5,11.72-12.9,1.11-.2,2.22-.4,3.33-.4h4.75c1.31,0,2.73.2,4.04.5,2.73.7,5.15,2.2,7.07,4.3.5.5.4,1.3-.1,1.8s-1.31.4-1.82-.1c-1.62-1.7-3.64-2.9-5.96-3.6-1.11-.3-2.22-.4-3.33-.4h-4.65c-.91,0-1.82.1-2.73.3-5.25,1.2-9.19,5.5-9.8,10.8v.1l-3.43,20h24.14l3.43-8c.2-.4.61-.7,1.11-.8.5,0,.91.2,1.21.6l4.65,8.1h2.73l-4.04-20c-.1-.7.3-1.3,1.01-1.5.71-.1,1.31.3,1.51,1l4.34,21.6c.1.4,0,.7-.3,1-.2.3-.51.5-.91.5Z"/>
              <path class="cls-1" d="M65.04,56.3c-3.13,0-5.66-2.5-5.66-5.6,0-2,1.01-3.7,2.73-4.8.91-.6,1.92-.8,3.03-.8,3.13,0,5.65,2.5,5.65,5.6,0,2.5-1.62,4.6-3.94,5.4-.71.1-1.31.2-1.82.2ZM65.04,47.5c-.61,0-1.21.2-1.72.5-.91.6-1.51,1.6-1.51,2.7,0,1.7,1.41,3.1,3.13,3.1.3,0,.61,0,.91-.1,1.31-.4,2.22-1.6,2.22-3,.1-1.8-1.31-3.2-3.03-3.2Z"/>
            </g>
          </g>
        </g>
      </g>
    </g>
  </g>
</svg>