<?xml version="1.0" encoding="UTF-8"?>
<svg id="Layer_2" data-name="Layer 2" xmlns="http://www.w3.org/2000/svg" viewBox="0 0 100.99 100">
  <defs>
    <style>
      .cls-1 {
        fill: #0b93e2;
      }

      .cls-2 {
        fill: #c2e3f7;
      }

      .cls-3 {
        fill: #fff;
      }
    </style>
  </defs>
  <g id="Layer_1-2" data-name="Layer 1">
    <g id="_3" data-name="3">
      <g>
        <rect class="cls-3" width="100.99" height="100"/>
        <g id="_604_Clean_Cleaning_Neat_Wash_Washing" data-name="604, Clean, Cleaning, Neat, Wash, Washing">
          <g>
            <g>
              <path class="cls-2" d="M68.27,70.1c1.41,0,2.52,1.1,2.52,2.5s-1.11,2.5-2.52,2.5-2.52-1.1-2.52-2.5,1.11-2.5,2.52-2.5Z"/>
              <path class="cls-2" d="M70.8,32.6c1.41,0,2.52,1.1,2.52,2.5s-1.11,2.5-2.52,2.5-2.52-1.1-2.52-2.5c0-1.4,1.11-2.5,2.52-2.5Z"/>
              <path class="cls-2" d="M29.19,38.8c2.12,0,3.84,1.7,3.84,3.8s-1.72,3.8-3.84,3.8-3.84-1.7-3.84-3.8c0-2.1,1.72-3.8,3.84-3.8Z"/>
              <path class="cls-2" d="M65.24,49.4c2.42,2.4,5.76,3.8,9.39,3.8-3.64,0-6.97,1.5-9.39,3.8-2.42,2.4-3.84,5.7-3.84,9.3,0-7.2-5.96-13.1-13.23-13.1,3.64,0,6.97-1.5,9.39-3.8,2.42-2.4,3.84-5.7,3.84-9.3,0,3.7,1.41,6.9,3.84,9.3Z"/>
              <path class="cls-3" d="M44.14,59.1c1.82,1.8,4.34,2.9,7.17,2.9-2.83,0-5.35,1.1-7.17,2.9-1.82,1.8-2.93,4.3-2.93,7.1,0-5.5-4.55-10-10.1-10,2.83,0,5.35-1.1,7.17-2.9,1.82-1.8,2.93-4.3,2.93-7.1,0,2.8,1.11,5.3,2.93,7.1Z"/>
              <path class="cls-3" d="M54.84,30.9c1.82,1.8,4.34,2.9,7.17,2.9-2.83,0-5.35,1.1-7.17,2.9s-2.93,4.3-2.93,7.1c0-5.5-4.55-10-10.1-10,2.83,0,5.35-1.1,7.17-2.9s2.93-4.3,2.93-7.1c0,2.8,1.11,5.3,2.93,7.1Z"/>
            </g>
            <g>
              <path class="cls-1" d="M61.4,67.6c-.71,0-1.31-.6-1.31-1.3,0-6.5-5.35-11.9-12.02-11.9-.71,0-1.31-.6-1.31-1.3s.61-1.3,1.31-1.3c3.23,0,6.26-1.2,8.48-3.5,2.22-2.2,3.54-5.2,3.54-8.4,0-.7.61-1.3,1.31-1.3s1.31.6,1.31,1.3c0,3.2,1.21,6.2,3.53,8.4,2.22,2.2,5.25,3.5,8.48,3.5.71,0,1.31.6,1.31,1.3s-.61,1.3-1.31,1.3c-3.23,0-6.26,1.2-8.48,3.5-2.22,2.2-3.53,5.2-3.53,8.4-.1.8-.71,1.3-1.31,1.3ZM54.03,53.3c3.23,1.4,5.86,4,7.27,7.2.71-1.6,1.72-3,3.03-4.3,1.31-1.3,2.73-2.3,4.34-3-1.61-.7-3.03-1.7-4.34-3-1.31-1.3-2.32-2.7-3.03-4.3-.71,1.6-1.72,3-3.03,4.3-1.21,1.3-2.63,2.3-4.24,3.1Z"/>
              <path class="cls-1" d="M41.21,73.3c-.71,0-1.31-.6-1.31-1.3,0-4.8-3.94-8.8-8.89-8.8-.71,0-1.31-.6-1.31-1.3s.61-1.3,1.31-1.3c2.32,0,4.55-.9,6.26-2.6,1.72-1.7,2.63-3.9,2.63-6.2,0-.7.61-1.3,1.31-1.3s1.21.8,1.21,1.5c0,2.3.91,4.5,2.62,6.2,1.72,1.7,3.94,2.6,6.26,2.6.71,0,1.31.6,1.31,1.3s-.61,1.3-1.31,1.3c-2.32,0-4.55.9-6.26,2.6-1.72,1.5-2.62,3.7-2.62,6,0,.7-.61,1.3-1.21,1.3ZM36.26,62c2.12,1.1,3.84,2.8,4.85,4.8.51-1,1.21-2,2.02-2.8.81-.8,1.82-1.5,2.83-2-1.01-.5-2.02-1.2-2.83-2s-1.52-1.8-2.02-2.8c-.51,1-1.21,2-2.02,2.8-.81.8-1.82,1.5-2.83,2Z"/>
              <path class="cls-1" d="M51.91,45.1c-.71,0-1.31-.6-1.31-1.3,0-4.8-3.94-8.8-8.89-8.8-.71,0-1.31-.6-1.31-1.3s.61-1.3,1.31-1.3c2.32,0,4.54-.9,6.26-2.6,1.72-1.7,2.63-3.9,2.63-6.2,0-.7.61-1.3,1.31-1.3s1.31.6,1.31,1.3c0,2.3.91,4.5,2.62,6.2,1.72,1.7,3.94,2.6,6.26,2.6.71,0,1.31.6,1.31,1.3s-.61,1.3-1.31,1.3c-2.32,0-4.55.9-6.26,2.6-1.72,1.7-2.62,3.9-2.62,6.2-.1.8-.61,1.3-1.31,1.3ZM46.96,33.9c2.12,1.1,3.84,2.8,4.85,4.8.51-1,1.21-2,2.02-2.8.81-.8,1.82-1.5,2.83-2-1.01-.5-2.02-1.2-2.83-2-.81-.8-1.52-1.8-2.02-2.8-.51,1-1.21,2-2.02,2.8-.81.8-1.72,1.5-2.83,2Z"/>
              <path class="cls-1" d="M29.19,47.6c-2.83,0-5.05-2.2-5.05-5s2.22-5,5.05-5,5.05,2.2,5.05,5-2.32,5-5.05,5ZM29.19,40.1c-1.41,0-2.52,1.1-2.52,2.5s1.11,2.5,2.52,2.5,2.52-1.1,2.52-2.5-1.11-2.5-2.52-2.5Z"/>
              <path class="cls-1" d="M68.27,76.4c-2.12,0-3.84-1.7-3.84-3.8s1.72-3.8,3.84-3.8,3.84,1.7,3.84,3.8-1.72,3.8-3.84,3.8ZM68.27,71.4c-.71,0-1.31.6-1.31,1.3s.61,1.3,1.31,1.3,1.31-.6,1.31-1.3c0-.8-.61-1.3-1.31-1.3Z"/>
              <path class="cls-1" d="M70.8,38.9c-2.12,0-3.84-1.7-3.84-3.8s1.72-3.8,3.84-3.8,3.84,1.7,3.84,3.8-1.72,3.8-3.84,3.8ZM70.8,33.9c-.71,0-1.31.6-1.31,1.3s.61,1.3,1.31,1.3,1.31-.6,1.31-1.3c0-.7-.61-1.3-1.31-1.3Z"/>
            </g>
          </g>
        </g>
      </g>
    </g>
  </g>
</svg>